<svg xmlns="http://www.w3.org/2000/svg" width="774.718" height="166.03" viewBox="0 0 774.718 166.03">
  <defs>
    <style>
      .cls-1 {
        fill: #ff3600;
        fill-rule: evenodd;
      }
    </style>
  </defs>
  <path id="CHARACTER" class="cls-1" d="M473.424,4837.34c13.444,0,22.4-5.32,30.236-15.67l-2.243-2.24c-7,8.12-17.918,11.2-28,6.71-19.884-8.39-26.877-42.27-29.12-66.08-1.116-15.4-1.679-51.8,9.236-70.84,4.761-7.84,10.639-11.76,16.516-12.04,6.717-.28,13.72,4.2,18.757,12.32,8.4,13.72,11.479,34.99,12.605,45.92H504.2l-5.581-64.12H473.137c-28.27,0-44.8,25.2-46.475,70.84C424.983,4788.07,441.785,4837.34,473.424,4837.34Zm49.345-14.56c0,6.71-.277,8.11-5.877,9.52l-7.557,2.24v2.8h44.519v-2.8l-7.843-2.24c-5.324-1.41-5.877-2.8-5.877-9.52v-84.56h33.6v84.57c0,6.71-.563,8.11-5.877,9.52l-7.843,2.24v2.79h44.519v-2.79l-7.557-2.24c-5.324-1.41-5.877-2.8-5.877-9.52V4685.86c0-6.71.563-8.12,5.877-9.52l7.557-2.24v-2.8H560.018v2.8l7.843,2.24c5.324,1.4,5.877,2.8,5.877,9.52v47.04h-33.6v-47.04c0-6.71.563-8.12,5.877-9.52l7.843-2.24v-2.8H509.335v2.8l7.547,2.24c5.6,1.4,5.877,2.8,5.877,9.52v136.92h0.01Zm138.757-3.36c1.4,7,2.8,11.76-5.038,13.44l-11.478,1.68v2.8h47.6v-2.8l-5.037-2.24c-5.325-2.24-6.441-2.8-7.557-9.52L650.6,4671.3H620.079v2.8l8.129,2.24c3.082,0.84,4.761,1.4,5.877,3.08L608.6,4822.78c-1.116,6.71-2.519,7.28-8.12,9.52l-5.038,2.24v2.8H631v-2.8l-8.959-3.08c-5.038-1.4-8.683-3.36-7.557-10.36l8.682-48.44h29.4Zm-37.239-52.36,13.157-73.64,14,73.64H624.287Zm72.645,55.72c0,6.71-.563,8.11-5.877,9.52l-7.843,2.24v2.8h44.519v-2.8l-7.556-2.24c-5.6-1.41-5.878-2.8-5.878-9.52v-63.56c3.082-3.92,7.557-7.84,12.318-12.04l17.355,75.61c1.4,6.71.277,8.11-4.485,9.52l-7.279,2.24v2.79h42.563v-2.79l-6.717-1.96c-5.877-1.4-5.877-3.08-7.28-9.8l-16.8-73.07-13.72-5.88c15.123-13.72,32.478-29.39,32.478-45.63,0-14.84-9.522-26.88-32.478-26.88H683.212v2.8l7.843,2.24c5.324,1.4,5.877,2.79,5.877,9.52v136.89ZM714.3,4676.9h4.2c19.045,0,25.485,9.24,25.2,21.57-0.563,20.16-12.88,37.23-29.4,53.2V4676.9Zm114.938,142.52c1.4,7,2.795,11.76-5.038,13.44l-11.478,1.68v2.8h47.6v-2.8l-5.037-2.24c-5.324-2.24-6.441-2.8-7.557-9.52L818.31,4671.3H787.788v2.8l8.129,2.24c3.082,0.84,4.761,1.4,5.878,3.08L776.31,4822.78c-1.116,6.71-2.519,7.28-8.119,9.52l-5.038,2.24v2.8h35.56v-2.8l-8.959-3.08c-5.038-1.4-8.683-3.36-7.557-10.36l8.683-48.44h29.4ZM792,4767.06l13.157-73.64,14,73.64H792Zm108.648,70.28c13.443,0,22.4-5.32,30.236-15.67l-2.242-2.24c-7,8.12-17.919,11.2-28,6.71-19.884-8.39-26.878-42.27-29.12-66.08-1.116-15.4-1.679-51.8,9.236-70.84,4.761-7.84,10.638-11.76,16.516-12.04,6.716-.28,13.72,4.2,18.757,12.32,8.4,13.72,11.478,34.99,12.6,45.92h2.8l-5.581-64.12H900.357c-28.27,0-44.795,25.2-46.475,70.84C852.2,4788.07,869.005,4837.34,900.644,4837.34Zm56.628,0H1001.5v-2.79l-7.552-2.24c-5.315-1.41-5.877-2.81-5.877-9.52V4676.9c12.329,0,23.529,15.68,27.159,58.52h2.25l-3.09-64.12h-70l-3.092,64.12h2.242c3.645-42.84,14.847-58.52,27.164-58.52v145.88c0,6.72-.553,8.11-5.877,9.52l-7.556,2.24v2.8Zm77.928-14.56c0,6.71-.57,8.11-5.88,9.52l-7.84,2.24v2.8h75.88l3.36-84.28h-2.8c-5.04,65.24-17.08,78.4-40.88,78.67h-4.49v-93.51h2.8c19.32,0,19.6,23.52,16.51,75.61h2.52c3.36-29.96,4.2-78.97,7.01-108.92h-2.8c-1.96,22.68-10.36,28-23.24,28h-2.8V4676.9h5.33c19.88,0,33.6,8.69,38.64,58.52h2.79l-5.59-64.12h-72.23v2.8l7.84,2.24c5.32,1.4,5.88,2.8,5.88,9.52v136.92h-0.01Zm88.24,0c0,6.71-.56,8.11-5.88,9.52l-7.84,2.24v2.8h44.52v-2.8l-7.56-2.24c-5.6-1.41-5.87-2.8-5.87-9.52v-63.56c3.08-3.92,7.55-7.84,12.31-12.04l17.36,75.61c1.4,6.71.27,8.11-4.49,9.52l-7.28,2.24v2.79h42.57v-2.79l-6.72-1.96c-5.88-1.4-5.88-3.08-7.28-9.8l-16.8-73.07-13.72-5.88c15.12-13.72,32.48-29.39,32.48-45.63,0-14.84-9.53-26.88-32.48-26.88h-47.04v2.8l7.84,2.24c5.33,1.4,5.88,2.79,5.88,9.52v136.89Zm17.37-145.88H1145c19.05,0,25.49,9.24,25.2,21.57-0.56,20.16-12.88,37.23-29.39,53.2V4676.9Z" transform="translate(-426.562 -4671.31)"/>
</svg>
