<?xml version="1.0" encoding="UTF-8"?>
<svg id="_レイヤー_2" data-name="レイヤー 2" xmlns="http://www.w3.org/2000/svg" viewBox="0 0 323.64 176.56">
  <defs>
    <style>
      .cls-1 {
        fill: #ff3600;
      }
    </style>
  </defs>
  <g id="_レイヤー_1-2" data-name="レイヤー 1">
    <g>
      <path class="cls-1" d="M95.92,170.38l-12.5-64.38h-12.97v1.19l3.45.95c1.31.36,2.02.6,2.5,1.31l-10.83,60.93c-.47,2.85-1.07,3.09-3.45,4.04l-2.14.96v1.18h15.11v-1.18l-3.81-1.31c-2.14-.6-3.69-1.43-3.21-4.41l3.69-20.58h12.49l3.81,19.87c.6,2.98,1.19,5-2.14,5.71l-4.88.72v1.18h20.23v-1.18l-2.14-.96c-2.26-.95-2.74-1.18-3.21-4.04ZM72.24,146.7l5.59-31.3,5.95,31.3h-11.54Z"/>
      <path class="cls-1" d="M112.39,107.19l3.33.95c2.26.6,2.5,1.19,2.5,4.05v58.19h0c0,2.85-.24,3.45-2.5,4.04l-3.33.96v1.18h18.92v-1.18l-3.21-.96c-2.26-.59-2.5-1.18-2.5-4.04v-58.19c0-2.86.12-3.45,2.5-4.05l3.21-.95v-1.19h-18.92v1.19Z"/>
      <path class="cls-1" d="M268.9,117.54c0-6.54-4.05-11.54-13.09-11.54h-19.75v1.19l3.21.95c2.26.6,2.5,1.19,2.5,4.05v58.19h0c0,2.85-.24,3.45-2.5,4.04l-3.21.96v1.18h18.8v-1.18l-3.21-.96c-2.26-.59-2.5-1.18-2.5-4.04v-10.12c5.23-6.9,19.76-24.27,19.76-42.72ZM249.14,156.33v-47.95h1.78c8.09,0,10.23,6.55,10.23,13.45,0,12.13-6.43,28.2-12.02,34.5Z"/>
      <path class="cls-1" d="M24.41,155.39l-11.66-49.39H.01v1.19l3.33.95c2.26.6,2.5,1.19,2.5,3.93v58.31c0,2.85-.24,3.45-2.5,4.04l-3.33.96v1.18h18.8v-1.18l-4.64-.6c-5.47-.71-6.07-5.71-6.07-9.88v-44.38l13.93,56.04,13.68-62.47v50.81c0,4.17.36,8.93-5.12,9.64l-5.59.83v1.19h23.8v-1.19l-3.21-.95c-2.26-.6-2.5-1.19-2.5-4.05v-58.3c0-2.74.24-3.33,2.5-3.92l3.21-.96v-1.19h-13.56l-10.83,49.39Z"/>
      <path class="cls-1" d="M164.26,107.19l6.07.59c5.59.48,6.78,5.72,6.78,9.88v46.65l-19.75-58.31h-11.31v1.19l3.33.95c2.26.6,2.5,1.19,2.5,4.05v58.19c0,2.85-.24,3.45-2.5,4.04l-3.33.96v1.18h21.06v-1.18l-6.07-.6c-5.59-.47-6.9-5.71-6.9-9.88v-46.17h0s19.4,57.83,19.4,57.83l5.95-1.66v-62.71c0-2.86.24-3.45,2.5-4.05l3.21-.95v-1.19h-20.95v1.19Z"/>
      <path class="cls-1" d="M304.6,106v1.19l4.52.71c6.78.95,5.47,5,5,7.86l-8.34,51.41-10.59-54.98c-.47-2.86.12-3.69,2.26-4.17l3.09-.83v-1.19h-19.04v1.19l2.98.95c2.38.71,2.74,1.19,3.21,4.05l12.49,64.37h7.5l-.48-3.09,9.88-61.28c.6-2.98,1.07-3.45,3.45-4.05l3.09-.95v-1.19h-19.04Z"/>
      <path class="cls-1" d="M21.06,69.37l-6.07-.6c-5.59-.47-6.9-5.71-6.9-9.88V12.73h0l19.39,57.83,5.95-1.67V6.19c0-2.85.24-3.45,2.5-4.05l3.22-.95V0h-20.95v1.19l6.07.6c5.59.47,6.78,5.71,6.78,9.88v46.65L11.31,0H0v1.19l3.33.95c2.27.6,2.5,1.19,2.5,4.05v58.19c0,2.85-.24,3.45-2.5,4.05l-3.33.95v1.19h21.06v-1.19Z"/>
      <path class="cls-1" d="M88.46,34.75h-1.18c-2.14,27.73-7.26,33.32-17.38,33.44h-1.9V28.44h1.18c8.21,0,8.33,9.99,7.02,32.13h1.07c1.43-12.73,1.79-33.56,2.98-46.29h-1.18c-.84,9.64-4.41,11.9-9.88,11.9h-1.18V2.38h2.26c8.45,0,14.28,3.69,16.42,24.87h1.19L85.49,0h-30.7v1.19l3.33.95c2.26.6,2.5,1.19,2.5,4.05v58.18h0c0,2.85-.24,3.45-2.5,4.05l-3.34.95v1.19h32.25l1.42-35.81Z"/>
      <path class="cls-1" d="M147.67,67.47l8.68-61.28c.47-2.98,1.07-3.45,3.45-4.05l3.09-.95V0h-18.32v1.19l3.81.71c6.66,1.07,5.47,5,5,7.85l-7.15,51.41-9.41-54.97c-.47-2.85.12-3.69,2.26-4.16l3.1-.83V0h-19.04v1.19l2.98.95c2.38.71,2.74,1.19,3.21,4.05l1.79,9.88-6.31,45.1-9.4-54.97c-.47-2.85.12-3.69,2.26-4.16l3.1-.83V0h-19.04v1.19l2.98.95c2.38.71,2.74,1.19,3.21,4.05l11.31,64.37h7.5l-.47-3.09,6.18-43.67,8.22,46.76h7.49l-.47-3.09Z"/>
    </g>
  </g>
</svg>