<svg xmlns="http://www.w3.org/2000/svg" width="10.22" height="64.875" viewBox="0 0 10.22 64.875">
  <defs>
    <style>
      .cls-1 {
        fill-rule: evenodd;
      }
    </style>
  </defs>
  <path id="XX_KTBC" data-name="XX KTBC" class="cls-1" d="M4599.63,724.3a1.106,1.106,0,0,1,.68.424v-2.236a1.052,1.052,0,0,1-.68.424h-3.35l-0.65-.618,0.65-.6h3.35a1.05,1.05,0,0,1,.68.425v-2.238a1.1,1.1,0,0,1-.68.425h-3.12a1.123,1.123,0,0,1-.63-0.412,2.636,2.636,0,0,1-1.12,1.517h0a3.015,3.015,0,0,1-1.11-1.517,1.182,1.182,0,0,1-.61.412h-2.26a1.148,1.148,0,0,1-.69-0.425v2.238a1.094,1.094,0,0,1,.69-0.425h2.46l0.66,0.6-0.66.618h-2.46a1.1,1.1,0,0,1-.69-0.424v2.236a1.156,1.156,0,0,1,.69-0.424h2.26a1.277,1.277,0,0,1,.61.411,3.023,3.023,0,0,1,1.11-1.517h0a2.642,2.642,0,0,1,1.12,1.517,1.2,1.2,0,0,1,.63-0.411h3.12Zm0-5.284a1.1,1.1,0,0,1,.68.425V717.2a1.05,1.05,0,0,1-.68.425h-3.35l-0.65-.617,0.65-.6h3.35a1.05,1.05,0,0,1,.68.425V714.59a1.1,1.1,0,0,1-.68.424h-3.12a1.126,1.126,0,0,1-.63-0.411,2.642,2.642,0,0,1-1.12,1.517h0a3.023,3.023,0,0,1-1.11-1.517,1.186,1.186,0,0,1-.61.411h-2.26a1.151,1.151,0,0,1-.69-0.424v2.237a1.094,1.094,0,0,1,.69-0.425h2.46l0.66,0.6-0.66.617h-2.46a1.094,1.094,0,0,1-.69-0.425v2.238a1.153,1.153,0,0,1,.69-0.425h2.26a1.272,1.272,0,0,1,.61.412,3.015,3.015,0,0,1,1.11-1.517h0a2.636,2.636,0,0,1,1.12,1.517,1.2,1.2,0,0,1,.63-0.412h3.12Zm-5.51-8.818a1.133,1.133,0,0,1,.65.373,0.908,0.908,0,0,1,.68-0.373h4.2a1.013,1.013,0,0,1,.66.412v-2.237a1.12,1.12,0,0,1-.66.424h-4.35c0.03-.463-0.09-1.286.82-1.286h3.53a1.089,1.089,0,0,1,.66.425v-2.173a1.092,1.092,0,0,1-.66.411h-4.48a1.183,1.183,0,0,1-.63-0.424l-0.26,2.006a7.537,7.537,0,0,1-1.06-1.993,1.234,1.234,0,0,1-.65.411h-1.79a1.086,1.086,0,0,1-.67-0.411v2.108a1.112,1.112,0,0,1,.67-0.424h1.23a2.086,2.086,0,0,1,1.67,1.376h-2.94a1.189,1.189,0,0,1-.63-0.424v2.224a1.1,1.1,0,0,1,.68-0.425h3.33Zm0-5.5a1.088,1.088,0,0,1,.65.386,0.883,0.883,0,0,1,.68-0.386h4.2a1.066,1.066,0,0,1,.66.412v-2.238a1.084,1.084,0,0,1-.66.425h-4.2a0.885,0.885,0,0,1-.68-0.385,1.047,1.047,0,0,1-.68.385h-2.62v-1.324h0.71a0.652,0.652,0,0,1,.52.527,4.024,4.024,0,0,1,1.33-1.864h-3.25a1.078,1.078,0,0,1-.67-0.425v7.6a1.083,1.083,0,0,1,.67-0.425h3.25a4.024,4.024,0,0,1-1.33-1.864,0.652,0.652,0,0,1-.52.527h-0.71v-1.35h2.65Zm-4.01-2.344a1.085,1.085,0,0,1,.67-0.424h3.31a0.864,0.864,0,0,1,.67.386,1.088,1.088,0,0,1,.68-0.386h4.21a1.12,1.12,0,0,1,.66.424v-4.924a1.059,1.059,0,0,1-.66.425h-2.49a1.686,1.686,0,0,1-.66-0.4,2.373,2.373,0,0,1-1.08,1.517,4.944,4.944,0,0,1-.66-1.53,1.1,1.1,0,0,1-.63.412h-3.35a1.083,1.083,0,0,1-.67-0.425v4.924Zm1.29-3.15h2.63a13.915,13.915,0,0,1,1.62,1.325h-4.25V699.2Zm6.29,1.312a2.359,2.359,0,0,1-1.36-.514l0.69-.8H4599v1.312h-1.31Zm1.96-3.777a1.093,1.093,0,0,1,.66.412v-4.9a1.1,1.1,0,0,1-.66.411c-1.07.013-.92,0.013-1.92,0a1.094,1.094,0,0,1-.63-0.411,7.775,7.775,0,0,1-.81,1.851,10.265,10.265,0,0,1,1.25-.064c0.43-.013.95-0.013,1.46-0.013v1.35h-3.55a0.883,0.883,0,0,1-.68-0.386,1.092,1.092,0,0,1-.68.386h0l-2.62-.014v-1.349h0.71a0.652,0.652,0,0,1,.52.527,4.059,4.059,0,0,1,1.33-1.877l-3.25.013a1.085,1.085,0,0,1-.67-0.424v4.9a1.062,1.062,0,0,1,.67-0.412h3.31a1.039,1.039,0,0,1,.68.386,0.884,0.884,0,0,1,.67-0.386h4.21Zm-0.02-4.837a1.1,1.1,0,0,1,.68.424v-2.237a1.048,1.048,0,0,1-.68.424h-3.35l-0.65-.616,0.65-.605h3.35a1.048,1.048,0,0,1,.68.424v-2.236a1.1,1.1,0,0,1-.68.423h-3.12a1.116,1.116,0,0,1-.63-0.411,2.636,2.636,0,0,1-1.12,1.517h0a3.019,3.019,0,0,1-1.11-1.517,1.179,1.179,0,0,1-.61.411h-2.26a1.154,1.154,0,0,1-.69-0.423v2.236a1.093,1.093,0,0,1,.69-0.424h2.46l0.66,0.605-0.66.616h-2.46a1.093,1.093,0,0,1-.69-0.424v2.237a1.151,1.151,0,0,1,.69-0.424h2.26a1.263,1.263,0,0,1,.61.411,3.027,3.027,0,0,1,1.11-1.517h0a2.639,2.639,0,0,1,1.12,1.517,1.193,1.193,0,0,1,.63-0.411h3.12Zm0-5.284a1.1,1.1,0,0,1,.68.424V684.8a1.048,1.048,0,0,1-.68.424h-3.35l-0.65-.616,0.65-.6h3.35a1.052,1.052,0,0,1,.68.424v-2.236a1.106,1.106,0,0,1-.68.424h-3.12a1.123,1.123,0,0,1-.63-0.412,2.641,2.641,0,0,1-1.12,1.518h0a3.025,3.025,0,0,1-1.11-1.518,1.182,1.182,0,0,1-.61.412h-2.26a1.156,1.156,0,0,1-.69-0.424v2.236a1.1,1.1,0,0,1,.69-0.424h2.46l0.66,0.6-0.66.616h-2.46a1.093,1.093,0,0,1-.69-0.424v2.237a1.151,1.151,0,0,1,.69-0.424h2.26a1.27,1.27,0,0,1,.61.411,3.017,3.017,0,0,1,1.11-1.516h0a2.637,2.637,0,0,1,1.12,1.516,1.2,1.2,0,0,1,.63-0.411h3.12Zm-5.51-8.818a1.133,1.133,0,0,1,.65.373,0.908,0.908,0,0,1,.68-0.373h4.2a1.015,1.015,0,0,1,.66.411v-2.237a1.112,1.112,0,0,1-.66.425h-4.35c0.03-.463-0.09-1.286.82-1.286h3.53a1.091,1.091,0,0,1,.66.424V673.36a1.092,1.092,0,0,1-.66.411h-4.48a1.178,1.178,0,0,1-.63-0.424l-0.26,2.006a7.537,7.537,0,0,1-1.06-1.993,1.24,1.24,0,0,1-.65.411h-1.79a1.086,1.086,0,0,1-.67-0.411v2.108a1.108,1.108,0,0,1,.67-0.424h1.23a2.086,2.086,0,0,1,1.67,1.376h-2.94a1.185,1.185,0,0,1-.63-0.425v2.224a1.106,1.106,0,0,1,.68-0.424h3.33Zm0-5.5a1.088,1.088,0,0,1,.65.386,0.883,0.883,0,0,1,.68-0.386h4.2a1.069,1.069,0,0,1,.66.411v-2.236a1.085,1.085,0,0,1-.66.423h-4.2a0.882,0.882,0,0,1-.68-0.385,1.042,1.042,0,0,1-.68.385h-2.62v-1.323h0.71a0.651,0.651,0,0,1,.52.527,4.026,4.026,0,0,1,1.33-1.865h-3.25a1.077,1.077,0,0,1-.67-0.424v7.6a1.085,1.085,0,0,1,.67-0.424h3.25a4.024,4.024,0,0,1-1.33-1.864,0.652,0.652,0,0,1-.52.527h-0.71v-1.35h2.65Zm-4.01-2.344a1.081,1.081,0,0,1,.67-0.424h3.31a0.862,0.862,0,0,1,.67.386,1.092,1.092,0,0,1,.68-0.386h4.21a1.115,1.115,0,0,1,.66.424v-4.924a1.057,1.057,0,0,1-.66.424h-2.49a1.672,1.672,0,0,1-.66-0.4,2.375,2.375,0,0,1-1.08,1.517,4.933,4.933,0,0,1-.66-1.53,1.089,1.089,0,0,1-.63.411h-3.35a1.081,1.081,0,0,1-.67-0.424v4.924Zm1.29-3.15h2.63a13.905,13.905,0,0,1,1.62,1.324h-4.25V666.8Zm6.29,1.311a2.346,2.346,0,0,1-1.36-.514l0.69-.8H4599v1.311h-1.31Zm1.96-3.776a1.1,1.1,0,0,1,.66.411v-4.9a1.1,1.1,0,0,1-.66.411c-1.07.012-.92,0.012-1.92,0a1.094,1.094,0,0,1-.63-0.411,7.793,7.793,0,0,1-.81,1.851,10.27,10.27,0,0,1,1.25-.065c0.43-.012.95-0.012,1.46-0.012v1.349h-3.55a0.885,0.885,0,0,1-.68-0.385,1.1,1.1,0,0,1-.68.385h0l-2.62-.013V661.61h0.71a0.652,0.652,0,0,1,.52.527,4.054,4.054,0,0,1,1.33-1.877l-3.25.012a1.084,1.084,0,0,1-.67-0.423v4.9a1.064,1.064,0,0,1,.67-0.411h3.31a1.035,1.035,0,0,1,.68.386,0.881,0.881,0,0,1,.67-0.386h4.21Z" transform="translate(-4590.09 -659.844)"/>
</svg>
