<svg xmlns="http://www.w3.org/2000/svg" width="1787" height="421" viewBox="0 0 893.5 210.5">
  <defs>
    <style>
      .cls-1 {
        fill: #ffe6d5;
        fill-opacity: 0;
        stroke: #ffe6d5;
        stroke-linejoin: round;
        stroke-width: 1px;
        fill-rule: evenodd;
      }
    </style>
  </defs>
  <path id="KAMITSUBAKI_CITY_UNDER_CONSTRUCTION" data-name="KAMITSUBAKI CITY UNDER CONSTRUCTION" class="cls-1" d="M9.777,57.607l6.7-14.8L26.3,85.5c0.781,3.738.154,4.519-2.65,5.3l-3.9,1.248V93.6H43.437V92.048L39.7,90.96c-3.271-.781-3.271-1.716-4.206-5.454L26.3,44.837l-9.038-3.9L31.755,9.308c1.4-2.8,2.336-4.673,5.14-5.454l3.738-1.088V1.2H20.222V2.756l5.453,1.088c2.8,0.468,3.738,3.431,2.336,6.547L9.777,50.285V9.3c0-3.738.154-4.519,3.271-5.3l4.205-1.248V1.2H-7.523V2.756L-3.158,4C-0.195,4.784.113,5.559,0.113,9.3V85.5c0,3.738-.313,4.519-3.271,5.3l-4.365,1.248V93.6H17.254V92.048L13.048,90.8c-3.117-.78-3.271-1.556-3.271-5.3V57.607ZM79.419,83.631c0.781,3.9,1.556,6.547-2.8,7.482l-6.388.935V93.6H96.719V92.048l-2.8-1.248c-2.963-1.248-3.584-1.556-4.205-5.3L73.339,1.2H56.353V2.756L60.877,4c1.715,0.467,2.65.78,3.271,1.715L49.965,85.5c-0.621,3.738-1.4,4.051-4.519,5.3l-2.8,1.248V93.6h19.79V92.048l-4.986-1.715c-2.8-.781-4.832-1.869-4.205-5.767l4.832-26.959h16.36ZM58.694,54.491l7.322-40.982,7.79,40.982H58.694ZM129.372,65.87L114.1,1.2H97.428V2.756L101.792,4c2.963,0.78,3.271,1.555,3.271,5.14V85.5c0,3.738-.313,4.519-3.271,5.3l-4.365,1.248V93.6H122.05V92.048l-6.08-.781c-7.169-.934-7.949-7.482-7.949-12.935V20.21L126.255,93.6l17.921-81.81V78.332c0,5.453.467,11.687-6.7,12.622l-7.322,1.088V93.6h31.164V92.042l-4.206-1.248c-2.963-.78-3.271-1.556-3.271-5.3V9.149c0-3.584.314-4.365,3.271-5.14l4.206-1.248V1.2H143.555Zm45,19.631c0,3.738-.313,4.519-3.271,5.3l-4.365,1.248V93.6H191.51V92.048l-4.2-1.248c-2.963-.78-3.271-1.556-3.271-5.3V9.3c0-3.738.154-4.519,3.271-5.3l4.2-1.248V1.2H166.734V2.756L171.1,4c2.963,0.78,3.271,1.555,3.271,5.3V85.5Zm31.484,8.109h24.617V92.053l-4.205-1.248c-2.958-.78-3.271-1.561-3.271-5.3V4.317c6.86,0,13.094,8.724,15.117,32.566h1.248L237.645,1.2H198.686l-1.721,35.683h1.248c2.028-23.842,8.262-32.566,15.117-32.566V85.5c0,3.743-.307,4.519-3.271,5.3l-4.2,1.248v1.561ZM264.4,4.317c6.233,0,10.285,4.205,13.088,9.818,3.585,7.322,4.986,16.987,5.608,22.753h1.248L281.229,1.2H266.424c-11.066,0-16.986,6.547-17.921,14.337a22.323,22.323,0,0,0,5.454,16.673l6.547,7.322L245.546,71.323c2.336,13.4,11.533,22.286,21.972,22.286,10.132,0,20.1-9.5,20.1-22.753,0-10.131-4.052-18.388-9.659-26.024-4.518-6.08-10.131-11.687-15.271-17.454-3.123-3.271-6.08-7.636-6.394-12.154C255.831,9.924,258.635,4.471,264.4,4.317ZM271.1,52c4.206,6.234,7.322,13.089,7.482,21.346,0.154,11.687-5.607,17.14-11.066,17.14-8.57,0-11.533-8.1-11.687-17.762-0.149-11.841,3.589-26.024,6.08-31.632A85.394,85.394,0,0,1,271.1,52Zm28.817,23.067c0,16.206,10.285,18.542,16.987,18.542s19.323-1.716,19.323-18.234V9.3c0-3.744.154-4.519,3.27-5.3L343.7,2.756V1.2H320.171V2.756L327.653,4c5.454,0.935,5.454,7.014,5.454,12.468V75.842c0,9.351-6.234,12.155-11.22,12.155-4.827,0-12.309-3.271-12.309-12.308V9.3c0-3.744.308-4.519,3.271-5.3l4.206-1.248V1.2H292.278V2.756L296.643,4c2.958,0.78,3.271,1.561,3.271,5.3V75.067ZM356.256,85.5c0,3.738-.154,4.519-3.271,5.3l-4.205,1.248V93.6h40.2c10.6-13.869,11.374-41.449-14.023-52.048,2.649-2.65,5.14-4.832,6.08-5.767,6.388-6.08,11.841-12.775,11.841-19.636,0-8.251-5.3-14.953-18.075-14.953H348.78V2.756L352.985,4c3.117,0.78,3.271,1.555,3.271,5.3V85.5Zm9.664,4.992V50.131c0.935-.935,3.9-3.738,6.855-6.7,19.637,9.038,16.36,47.062-1.088,47.062H365.92Zm0-86.175h2.337c10.752,0,14.337,5.14,14.023,12-0.313,11.22-7.014,20.725-16.36,29.608V4.317Zm66.237,79.314c0.781,3.9,1.556,6.547-2.8,7.482l-6.387.935V93.6h26.491V92.048l-2.8-1.248c-2.963-1.248-3.584-1.556-4.205-5.3L426.077,1.2H409.091V2.756L413.615,4c1.715,0.467,2.65.78,3.271,1.715L402.7,85.5c-0.621,3.738-1.4,4.051-4.519,5.3l-2.8,1.248V93.6h19.791V92.048l-4.986-1.715c-2.8-.781-4.833-1.869-4.206-5.767l4.832-26.959h16.36ZM411.432,54.491l7.323-40.982,7.789,40.982H411.432Zm53.393,3.117,6.7-14.8,9.819,42.7c0.78,3.738.154,4.519-2.65,5.3l-3.9,1.248V93.6h23.688V92.048l-3.738-1.088c-3.271-.781-3.271-1.716-4.206-5.454L481.35,44.837l-9.037-3.9L486.8,9.308c1.4-2.8,2.337-4.673,5.14-5.454l3.739-1.088V1.2H475.27V2.756l5.453,1.088c2.8,0.468,3.738,3.431,2.337,6.547L464.825,50.285V9.3c0-3.738.154-4.519,3.271-5.3L472.3,2.756V1.2H447.525V2.756L451.89,4c2.963,0.78,3.271,1.555,3.271,5.3V85.5c0,3.738-.313,4.519-3.271,5.3l-4.365,1.248V93.6H472.3V92.048L468.1,90.8c-3.117-.78-3.271-1.556-3.271-5.3V57.607ZM510.342,85.5c0,3.738-.313,4.519-3.27,5.3l-4.365,1.248V93.6h24.776V92.048L523.277,90.8c-2.963-.78-3.27-1.556-3.27-5.3V9.3c0-3.738.154-4.519,3.27-5.3l4.206-1.248V1.2H502.707V2.756L507.072,4c2.963,0.78,3.27,1.555,3.27,5.3V85.5Zm86.571,8.109c7.482,0,12.468-2.963,16.827-8.725l-1.248-1.248a13.21,13.21,0,0,1-15.584,3.739C585.842,82.7,581.95,63.847,580.7,50.6c-0.621-8.57-.935-28.828,5.14-39.427,2.649-4.365,5.92-6.547,9.191-6.7,3.738-.154,7.636,2.336,10.439,6.855,4.673,7.636,6.388,19.477,7.015,25.557h1.556L610.937,1.2H596.754c-15.734,0-24.93,14.024-25.865,39.427-0.934,25.557,8.416,52.983,26.024,52.983h0ZM627.834,85.5c0,3.738-.314,4.519-3.271,5.3L620.2,92.048V93.6h24.776V92.048L640.769,90.8c-2.963-.78-3.271-1.556-3.271-5.3V9.3c0-3.738.154-4.519,3.271-5.3l4.205-1.248V1.2H620.2V2.756L624.563,4c2.963,0.78,3.271,1.555,3.271,5.3V85.5Zm31.484,8.109h24.617V92.053l-4.206-1.248c-2.957-.78-3.271-1.561-3.271-5.3V4.317c6.861,0,13.1,8.724,15.118,32.566h1.248L691.109,1.2H652.15l-1.721,35.683h1.248c2.028-23.842,8.262-32.566,15.117-32.566V85.5c0,3.743-.307,4.519-3.271,5.3l-4.205,1.248v1.561ZM735.559,9.3c0.781-3.117,2.337-4.673,5.14-5.454l3.738-1.088V1.2h-20.57V2.756l5.607,1.088c2.65,0.468,3.43,3.271,2.5,6.547L723.4,45.453,714.049,9.3c-0.935-3.738,0-4.519,2.8-5.3l3.9-1.248V1.2H695.974V2.756L699.4,3.69c2.8,0.621,4.051,2.182,4.986,5.607L715.3,51.214V85.5c0,3.738-.154,4.519-3.271,5.3l-4.206,1.248V93.6H732.6V92.042l-4.365-1.248c-2.963-.78-3.27-1.556-3.27-5.3V51.065ZM-0.283,188.8c0,16.206,10.285,18.542,16.986,18.542s19.323-1.715,19.323-18.234V123.037c0-3.744.154-4.519,3.271-5.3L43.5,116.49v-1.556H19.974v1.556l7.482,1.248c5.453,0.934,5.453,7.014,5.453,12.467v59.371c0,9.351-6.234,12.154-11.22,12.154-4.827,0-12.309-3.27-12.309-12.308V123.037c0-3.744.308-4.519,3.271-5.3l4.206-1.248v-1.556H-7.919v1.556l4.365,1.248c2.958,0.78,3.271,1.561,3.271,5.3V188.8Zm59.464-57.194,25.4,75.731,7.789-2.183V123.037c0-3.738.313-4.519,3.271-5.3l4.206-1.248v-1.556H72.419v1.556l7.949,0.78c7.322,0.621,8.883,7.482,8.883,12.935v61.086L63.387,114.934h-14.8v1.556l4.365,1.248c2.963,0.78,3.271,1.555,3.271,5.3v76.2c0,3.738-.313,4.518-3.271,5.3l-4.365,1.248v1.556h27.58v-1.556L68.214,205c-7.322-.621-9.037-7.482-9.037-12.935V131.607h0.005Zm53.539,67.628c0,3.738-.313,4.518-3.43,5.3l-4.206,1.248v1.556h14.958c21.346-.154,33.5-29.609,33.193-55.166-0.154-19.784-7.949-37.238-24.463-37.238H105.084v1.556l4.206,1.248c3.117,0.78,3.43,1.555,3.43,5.3v76.2Zm11.22-81.184c12.468,0,18.855,18.388,19.169,38.179,0.154,21.659-7.015,45.033-20.879,47.837V118.051h1.71ZM165,199.235c0,3.738-.313,4.518-3.271,5.3l-4.365,1.248v1.556h42.23l1.869-46.9h-1.555c-2.8,36.309-9.5,43.632-22.754,43.786h-2.5V152.178h1.555c10.753,0,10.907,13.089,9.192,42.076h1.4c1.869-16.673,2.336-43.945,3.9-60.618h-1.556c-1.088,12.622-5.766,15.585-12.935,15.585h-1.555v-31.17h2.963c11.066,0,18.7,4.832,21.5,32.566h1.556l-3.112-35.683h-40.2v1.556l4.365,1.248c2.963,0.78,3.27,1.555,3.27,5.3v76.2h0Zm49.769,0c0,3.738-.314,4.518-3.271,5.3l-4.365,1.248v1.556h24.776v-1.556l-4.205-1.248c-3.117-.781-3.271-1.556-3.271-5.3v-35.37a56.258,56.258,0,0,1,6.855-6.7l9.659,42.076c0.78,3.738.154,4.519-2.5,5.3l-4.051,1.248v1.556h23.687v-1.556l-3.738-1.088c-3.271-.781-3.271-1.715-4.051-5.454l-9.351-40.668-7.636-3.271c8.416-7.636,18.075-16.36,18.075-25.4,0-8.256-5.3-14.958-18.075-14.958H207.13v1.556l4.365,1.248c2.963,0.781,3.271,1.556,3.271,5.3v76.182Zm9.664-81.184h2.336c10.6,0,14.183,5.14,14.024,12-0.313,11.22-7.169,20.725-16.36,29.609V118.051Zm101.725,89.292c7.482,0,12.468-2.963,16.827-8.724l-1.248-1.248a13.21,13.21,0,0,1-15.585,3.738c-11.065-4.672-14.958-23.528-16.2-36.777-0.622-8.57-.935-28.827,5.14-39.426,2.649-4.365,5.92-6.547,9.191-6.7,3.738-.154,7.636,2.336,10.439,6.855,4.673,7.636,6.388,19.477,7.015,25.557h1.555l-3.105-35.683H326c-15.734,0-24.931,14.024-25.865,39.426-0.935,25.557,8.416,52.983,26.024,52.983h0Zm61.151-49.712c0,23.842-5.767,46.6-12.776,46.6s-12.622-22.753-12.622-46.595c0-23.687,4.833-39.58,12.622-39.58S387.306,133.944,387.306,157.631Zm-36.15-3.271c0,25.557,8.57,52.983,23.374,52.983,14.958,0,23.375-27.426,23.375-52.983,0-25.4-9.038-39.426-23.375-39.426C360.347,114.934,351.156,128.958,351.156,154.36Zm62.612-22.753,25.4,75.731,7.79-2.183V123.037c0-3.738.313-4.519,3.271-5.3l4.2-1.248v-1.556H427.005v1.556l7.949,0.78c7.323,0.621,8.884,7.482,8.884,12.935v61.086l-25.865-76.357h-14.8v1.556l4.365,1.248c2.963,0.78,3.271,1.555,3.271,5.3v76.2c0,3.738-.314,4.518-3.271,5.3l-4.365,1.248v1.556h27.58v-1.556L422.8,205c-7.322-.621-9.038-7.482-9.038-12.935V131.607h0.006Zm63.438-13.556c6.234,0,10.285,4.2,13.089,9.818,3.584,7.322,4.986,16.986,5.607,22.753h1.248l-3.117-35.688h-14.8c-11.066,0-16.986,6.547-17.921,14.337a22.326,22.326,0,0,0,5.453,16.673l6.547,7.322L458.35,185.057c2.337,13.4,11.534,22.286,21.973,22.286,10.131,0,20.1-9.5,20.1-22.753,0-10.131-4.052-18.388-9.659-26.024-4.519-6.08-10.132-11.687-15.272-17.454-3.122-3.271-6.08-7.636-6.393-12.154C468.636,123.658,471.439,118.205,477.206,118.051Zm6.7,47.683c4.205,6.234,7.322,13.089,7.482,21.346,0.153,11.687-5.608,17.141-11.067,17.141-8.57,0-11.533-8.1-11.687-17.762-0.148-11.841,3.59-26.024,6.08-31.632A85.516,85.516,0,0,1,483.9,165.734Zm32.314,41.609h24.617v-1.556l-4.2-1.248c-2.958-.78-3.271-1.561-3.271-5.3V118.051c6.86,0,13.094,8.724,15.117,32.566h1.248l-1.715-35.683H509.048l-1.721,35.683h1.248c2.028-23.842,8.262-32.566,15.117-32.566v81.184c0,3.743-.307,4.518-3.27,5.3l-4.206,1.248v1.561Zm46.667-8.108c0,3.738-.313,4.518-3.27,5.3l-4.365,1.248v1.556h24.776v-1.556l-4.206-1.248c-3.116-.781-3.27-1.556-3.27-5.3v-35.37a56.258,56.258,0,0,1,6.855-6.7l9.658,42.076c0.781,3.738.154,4.519-2.5,5.3l-4.052,1.248v1.556H606.2v-1.556l-3.738-1.088c-3.271-.781-3.271-1.715-4.052-5.454l-9.351-40.668-7.635-3.271c8.416-7.636,18.075-16.36,18.075-25.4,0-8.256-5.3-14.958-18.075-14.958H555.248v1.556l4.365,1.248c2.963,0.781,3.27,1.556,3.27,5.3v76.182Zm9.665-81.184h2.336c10.6,0,14.183,5.14,14.024,12-0.314,11.22-7.169,20.725-16.36,29.609V118.051ZM614.9,188.8c0,16.206,10.285,18.542,16.986,18.542s19.323-1.715,19.323-18.234V123.037c0-3.744.154-4.519,3.271-5.3l4.205-1.248v-1.556H635.154v1.556l7.482,1.248c5.453,0.934,5.453,7.014,5.453,12.467v59.371c0,9.351-6.234,12.154-11.22,12.154-4.826,0-12.308-3.27-12.308-12.308V123.037c0-3.744.308-4.519,3.271-5.3l4.205-1.248v-1.556H607.261v1.556l4.365,1.248c2.957,0.78,3.271,1.561,3.271,5.3V188.8Zm71.257,18.542c7.482,0,12.468-2.963,16.827-8.724l-1.248-1.248a13.21,13.21,0,0,1-15.585,3.738c-11.066-4.672-14.958-23.528-16.206-36.777-0.621-8.57-.934-28.827,5.14-39.426,2.65-4.365,5.921-6.547,9.192-6.7,3.738-.154,7.635,2.336,10.439,6.855,4.673,7.636,6.388,19.477,7.015,25.557h1.555l-3.106-35.683H685.994c-15.733,0-24.93,14.024-25.864,39.426-0.935,25.557,8.416,52.983,26.024,52.983h0Zm32.174,0h24.616v-1.556l-4.2-1.248c-2.957-.78-3.271-1.561-3.271-5.3V118.051c6.861,0,13.1,8.724,15.118,32.566h1.248l-1.716-35.683H711.159l-1.72,35.683h1.248c2.028-23.842,8.262-32.566,15.117-32.566v81.184c0,3.743-.308,4.518-3.271,5.3l-4.205,1.248v1.561ZM765,199.235c0,3.738-.313,4.518-3.271,5.3l-4.365,1.248v1.556h24.777v-1.556l-4.206-1.248c-2.963-.781-3.271-1.556-3.271-5.3v-76.2c0-3.738.154-4.519,3.271-5.3l4.206-1.248v-1.556H757.359v1.556l4.365,1.248c2.963,0.78,3.271,1.555,3.271,5.3v76.2Zm58.481-41.6c0,23.842-5.766,46.6-12.775,46.6s-12.622-22.753-12.622-46.595c0-23.687,4.832-39.58,12.622-39.58S823.476,133.944,823.476,157.631Zm-36.15-3.271c0,25.557,8.57,52.983,23.375,52.983,14.958,0,23.374-27.426,23.374-52.983,0-25.4-9.038-39.426-23.374-39.426C796.518,114.934,787.326,128.958,787.326,154.36Zm62.612-22.753,25.4,75.731,7.79-2.183V123.037c0-3.738.313-4.519,3.271-5.3l4.205-1.248v-1.556H863.175v1.556l7.949,0.78c7.323,0.621,8.884,7.482,8.884,12.935v61.086l-25.865-76.357h-14.8v1.556l4.365,1.248c2.963,0.78,3.271,1.555,3.271,5.3v76.2c0,3.738-.313,4.518-3.271,5.3l-4.365,1.248v1.556h27.58v-1.556L858.97,205c-7.322-.621-9.038-7.482-9.038-12.935V131.607h0.006Z"/>
</svg>
