<svg xmlns="http://www.w3.org/2000/svg" width="1122.12" height="704.41" viewBox="0 0 1122.12 704.41">
  <defs>
    <style>
      .cls-1 {
        fill: #dab499;
        fill-opacity: 0.6;
        fill-rule: evenodd;
      }
    </style>
  </defs>
  <path id="INTRO_DUCTION" data-name="INTRO DUCTION" class="cls-1" d="M1255.43,5371.32c0,13.48-1.13,16.3-11.8,19.11l-15.74,4.5v5.61h89.36v-5.61l-15.17-4.5c-10.68-2.81-11.79-5.61-11.79-19.11V5096.49c0-13.49.55-16.3,11.79-19.12l15.17-4.5v-5.61h-89.36v5.61l15.74,4.5c10.69,2.82,11.8,5.61,11.8,19.12v274.83Zm107.82-243.92,91.61,273.14,28.09-7.87V5096.49c0-13.49,1.13-16.3,11.8-19.12l15.17-4.5v-5.61H1411v5.61l28.67,2.82c26.41,2.24,32.04,26.98,32.04,46.65v220.33l-93.29-275.41h-53.4v5.61l15.75,4.5c10.68,2.82,11.79,5.61,11.79,19.12v274.83c0,13.48-1.13,16.3-11.79,19.11l-15.75,4.5v5.61h99.48v-5.61l-28.67-2.81c-26.41-2.24-32.6-26.99-32.6-46.66V5127.4h0.02Zm185.73,273.16h88.79v-5.61l-15.17-4.5c-10.67-2.81-11.8-5.63-11.8-19.11V5078.5c24.74,0,47.23,31.47,54.53,117.46h4.5l-6.19-128.7H1523.12l-6.2,128.7h4.5c7.31-85.99,29.8-117.46,54.52-117.46v292.82c0,13.5-1.11,16.3-11.8,19.11l-15.16,4.5v5.63Zm156.42-29.24c0,13.48-1.13,16.3-11.8,19.11l-15.74,4.5v5.61h89.36v-5.61l-15.17-4.5c-11.24-2.81-11.8-5.61-11.8-19.11V5243.75c6.19-7.88,15.17-15.75,24.73-24.17l34.84,151.76c2.81,13.48.55,16.3-9,19.11l-14.62,4.5v5.61h85.44v-5.61l-13.48-3.92c-11.8-2.82-11.8-6.19-14.62-19.67l-33.72-146.69-27.54-11.8c30.35-27.54,65.19-59,65.19-91.6,0-29.78-19.11-53.95-65.19-53.95h-94.42v5.61l15.74,4.5c10.69,2.82,11.8,5.61,11.8,19.12v274.77Zm34.85-292.82h8.43c38.23,0,51.16,18.54,50.58,43.29-1.13,40.46-25.85,74.75-59.01,106.79V5078.5Zm247.03,142.76c0,85.99-20.8,168.06-46.08,168.06-25.3,0-45.53-82.07-45.53-168.06,0-85.44,17.43-142.76,45.53-142.76S1987.28,5135.82,1987.28,5221.26Zm-130.39-11.8c0,92.18,30.91,191.1,84.31,191.1,53.95,0,84.31-98.92,84.31-191.1,0-91.62-32.6-142.2-84.31-142.2C1890.04,5067.26,1856.89,5117.84,1856.89,5209.46Zm-601.46,532.95c0,13.48-1.13,16.29-12.37,19.11l-15.17,4.5v5.61h53.95c76.99-.55,120.83-106.79,119.72-198.97-0.56-71.36-28.67-134.31-88.23-134.31h-85.44v5.61l15.17,4.5c11.24,2.82,12.37,5.61,12.37,19.11v274.84Zm40.47-292.82c44.97,0,68.01,66.32,69.14,137.7,0.55,78.12-25.3,162.43-75.31,172.54V5449.59h6.17Zm144.28,255.18c0,58.45,37.1,66.88,61.27,66.88s69.69-6.18,69.69-65.77V5467.57c0-13.5.55-16.29,11.8-19.11l15.17-4.5v-5.61h-84.87v5.61l26.99,4.5c19.67,3.37,19.67,25.3,19.67,44.97v214.14c0,33.73-22.49,43.84-40.47,43.84-17.41,0-44.4-11.8-44.4-44.4V5467.57c0-13.5,1.11-16.29,11.8-19.11l15.17-4.5v-5.61h-89.36v5.61l15.74,4.5c10.67,2.82,11.8,5.63,11.8,19.11v237.2Zm254.63,66.88c26.99,0,44.97-10.69,60.7-31.47l-4.5-4.5c-14.06,16.3-35.97,22.49-56.22,13.49-39.91-16.86-53.95-84.87-58.45-132.65-2.24-30.91-3.37-103.98,18.54-142.2,9.56-15.75,21.36-23.62,33.15-24.17,13.49-.56,27.54,8.42,37.66,24.72,16.85,27.54,23.04,70.25,25.3,92.18h5.61l-11.21-128.7h-51.15c-56.75,0-89.92,50.58-93.29,142.2C1597.58,5672.73,1631.31,5771.65,1694.81,5771.65Zm104.15,0h88.79v-5.61l-15.17-4.5c-10.67-2.82-11.8-5.63-11.8-19.12V5449.59c24.75,0,47.23,31.47,54.53,117.46h4.5l-6.19-128.7H1773.1l-6.2,128.7h4.5c7.32-85.99,29.8-117.46,54.53-117.46v292.82c0,13.5-1.12,16.29-11.8,19.11l-15.17,4.5v5.63Zm156.42-29.24c0,13.48-1.13,16.29-11.8,19.11l-15.74,4.5v5.61h89.36v-5.61l-15.16-4.5c-10.69-2.82-11.8-5.61-11.8-19.11V5467.57c0-13.48.55-16.29,11.8-19.11l15.16-4.5v-5.61h-89.36v5.61l15.74,4.5c10.69,2.82,11.8,5.61,11.8,19.11v274.84Zm196.65-150.06c0,85.99-20.8,168.06-46.08,168.06-25.3,0-45.53-82.07-45.53-168.06,0-85.44,17.43-142.76,45.53-142.76S2152.03,5506.91,2152.03,5592.35Zm-130.39-11.8c0,92.18,30.91,191.1,84.31,191.1,53.95,0,84.31-98.92,84.31-191.1,0-91.62-32.6-142.2-84.31-142.2C2054.79,5438.35,2021.64,5488.93,2021.64,5580.55Zm192.51-82.06,91.6,273.14,28.1-7.87V5467.57c0-13.48,1.12-16.29,11.79-19.11l15.17-4.5v-5.61h-98.92v5.61l28.67,2.81c26.41,2.24,32.04,26.99,32.04,46.66v220.32l-93.29-275.4h-53.39v5.61l15.74,4.5c10.69,2.82,11.8,5.61,11.8,19.11v274.84c0,13.48-1.13,16.29-11.8,19.11l-15.74,4.5v5.61h99.47v-5.61l-28.67-2.82c-26.41-2.24-32.59-26.98-32.59-46.65V5498.49h0.02Z" transform="translate(-1227.88 -5067.25)"/>
</svg>
