<svg xmlns="http://www.w3.org/2000/svg" width="115.04" height="23.125" viewBox="0 0 115.04 23.125">
  <defs>
    <style>
      .cls-1 {
        fill: #fffef4;
        fill-rule: evenodd;
      }
    </style>
  </defs>
  <path id="CHARACTER" class="cls-1" d="M4610.87,511.36a4.882,4.882,0,0,0,4.21-2.182l-0.32-.313a3.292,3.292,0,0,1-3.89.936c-2.77-1.169-3.75-5.886-4.06-9.2-0.15-2.144-.23-7.212,1.29-9.863a2.989,2.989,0,0,1,2.3-1.676,3.123,3.123,0,0,1,2.61,1.714,16.708,16.708,0,0,1,1.75,6.393h0.39l-0.78-8.926h-3.54c-3.94,0-6.24,3.508-6.47,9.863-0.24,6.393,2.1,13.254,6.51,13.254h0Zm7.69-2.028c0,0.935-.04,1.13-0.82,1.325l-1.05.313v0.389h6.2V510.97l-1.09-.313c-0.74-.195-0.82-0.389-0.82-1.325V497.56h4.68v11.773c0,0.935-.08,1.131-0.82,1.326l-1.09.312v0.389h6.2v-0.389l-1.06-.312c-0.74-.195-0.81-0.389-0.81-1.326V490.27c0-.935.07-1.13,0.81-1.326l1.06-.312v-0.389h-6.2v0.389l1.09,0.312c0.74,0.2.82,0.39,0.82,1.326v6.549h-4.68V490.27c0-.935.08-1.13,0.82-1.326l1.09-.312v-0.389h-6.2v0.389l1.05,0.312c0.78,0.2.82,0.39,0.82,1.326v19.062h0Zm20.81-.468c0.19,0.975.39,1.638-.71,1.872l-1.59.234v0.389h6.62V510.97l-0.7-.313a1.286,1.286,0,0,1-1.05-1.325l-4.1-21.089h-4.24v0.389l1.13,0.312a1.273,1.273,0,0,1,.82.429L4632,509.332a1.317,1.317,0,0,1-1.13,1.325l-0.7.313v0.389h4.95V510.97l-1.25-.429a1.135,1.135,0,0,1-1.05-1.443l1.21-6.744h4.09Zm-5.19-7.29,1.83-10.252,1.95,10.252h-3.78Zm11.6,7.758c0,0.935-.08,1.13-0.82,1.325l-1.09.313v0.389h6.2V510.97l-1.05-.313c-0.78-.195-0.82-0.389-0.82-1.325v-8.848a14.329,14.329,0,0,1,1.71-1.677l2.42,10.526c0.2,0.935.04,1.131-.62,1.326l-1.02.312v0.389h5.93v-0.389l-0.94-.272c-0.82-.2-0.82-0.429-1.01-1.364l-2.34-10.174-1.91-.818c2.11-1.91,4.52-4.093,4.52-6.354,0-2.066-1.32-3.742-4.52-3.742h-6.55v0.389l1.09,0.313c0.74,0.195.82,0.389,0.82,1.325v19.058Zm2.42-20.309h0.58c2.65,0,3.55,1.286,3.51,3-0.08,2.807-1.79,5.185-4.09,7.407V489.023Zm16.83,19.841c0.19,0.975.39,1.638-.71,1.872l-1.59.234v0.389h6.62V510.97l-0.7-.313a1.286,1.286,0,0,1-1.05-1.325l-4.09-21.089h-4.25v0.389l1.13,0.312a1.273,1.273,0,0,1,.82.429l-3.55,19.959a1.317,1.317,0,0,1-1.13,1.325l-0.7.313v0.389h4.95V510.97l-1.25-.429a1.135,1.135,0,0,1-1.05-1.443l1.21-6.744h4.09Zm-5.19-7.29,1.83-10.252,1.95,10.252h-3.78Zm15.85,9.786a4.87,4.87,0,0,0,4.21-2.182l-0.31-.313a3.3,3.3,0,0,1-3.9.936c-2.77-1.169-3.74-5.886-4.05-9.2-0.16-2.144-.24-7.212,1.28-9.863a3.019,3.019,0,0,1,2.3-1.676,3.137,3.137,0,0,1,2.62,1.714,17.077,17.077,0,0,1,1.75,6.393h0.39l-0.78-8.926h-3.55c-3.93,0-6.23,3.508-6.47,9.863-0.23,6.393,2.11,13.254,6.51,13.254h0Zm8.05,0h6.16v-0.389l-1.05-.312c-0.74-.195-0.82-0.391-0.82-1.326v-20.31c1.72,0,3.28,2.182,3.78,8.146h0.31l-0.42-8.926h-9.75l-0.43,8.926h0.31c0.51-5.964,2.07-8.146,3.78-8.146v20.309c0,0.936-.07,1.13-0.81,1.325l-1.06.313v0.39Zm11.68-2.028c0,0.935-.08,1.13-0.82,1.325l-1.09.313v0.389h10.56l0.47-11.733h-0.39c-0.7,9.083-2.38,10.915-5.69,10.953h-0.63V497.56h0.39c2.69,0,2.73,3.275,2.3,10.526h0.35c0.47-4.171.59-10.994,0.98-15.165h-0.39c-0.27,3.158-1.44,3.9-3.24,3.9h-0.39v-7.8h0.74c2.77,0,4.68,1.209,5.38,8.146h0.39l-0.77-8.926h-10.06v0.389l1.09,0.312c0.74,0.2.82,0.39,0.82,1.326v19.062h0Zm13.11,0c0,0.935-.08,1.13-0.82,1.325l-1.09.313v0.389h6.2V510.97l-1.06-.313c-0.78-.195-0.81-0.389-0.81-1.325v-8.848a13.612,13.612,0,0,1,1.71-1.677l2.42,10.526c0.19,0.935.04,1.131-.63,1.326l-1.01.312v0.389h5.92v-0.389l-0.93-.272c-0.82-.2-0.82-0.429-1.01-1.364l-2.34-10.174-1.91-.818c2.1-1.91,4.52-4.093,4.52-6.354,0-2.066-1.33-3.742-4.52-3.742h-6.55v0.389l1.09,0.313c0.74,0.195.82,0.389,0.82,1.325v19.058Zm2.42-20.309h0.58c2.65,0,3.55,1.286,3.51,3-0.08,2.807-1.8,5.185-4.09,7.407V489.023Z" transform="translate(-4604.34 -488.25)"/>
</svg>
