<svg xmlns="http://www.w3.org/2000/svg" width="445" height="161" viewBox="0 0 445 161">
  <defs>
    <style>
      .cls-1 {
        fill: #ff3600;
        fill-rule: evenodd;
      }
    </style>
  </defs>
  <path id="GOODS" class="cls-1" d="M45.967,160.754c10.048,0,16.83-3.257,21.725-7.328l7.874,7.328v-64.9c0-7.06,1.629-10.317,7.06-4.617l2.711-2.989L28.59,30.957l-1.9,1.628c29.6,36.927,32.042,41.545,32.042,61.364V151.51a24.751,24.751,0,0,1-12.491-1.36c-19.819-7.874-26.611-41-28.507-64.353-1.36-14.934-1.9-50.233,8.957-68.7C31.042,9.49,36.742,5.687,42.71,5.419c6.514-.268,13.037,4.071,17.923,11.945C68.774,30.67,71.763,51.3,72.855,61.9h2.711L70.135-.271H45.42C18.005-.271,1.979,24.165.351,68.43-1.278,112.964,15.016,160.754,45.967,160.754ZM156.842,74.13c0,41.545-10.049,81.193-22.262,81.193s-21.994-39.648-21.994-81.193c0-41.276,8.42-68.97,21.994-68.97S156.842,32.854,156.842,74.13Zm-62.993-5.7c0,44.534,14.934,92.324,40.731,92.324,26.065,0,40.73-47.79,40.73-92.324,0-44.265-15.748-68.7-40.73-68.7C109.866-.271,93.849,24.165,93.849,68.43ZM249.3,74.13c0,41.545-10.049,81.193-22.262,81.193s-21.994-39.648-21.994-81.193c0-41.276,8.42-68.97,21.994-68.97S249.3,32.854,249.3,74.13Zm-62.993-5.7c0,44.534,14.934,92.324,40.731,92.324,26.065,0,40.73-47.79,40.73-92.324,0-44.265-15.748-68.7-40.73-68.7C202.326-.271,186.309,24.165,186.309,68.43Zm102.776,78.195c0,6.514-.547,7.874-5.978,9.234l-7.328,2.174v2.711h26.065c37.2-.268,58.375-51.593,57.839-96.126C359.414,30.143,345.831-.271,317.055-0.271H275.779V2.44l7.328,2.174c5.431,1.36,5.978,2.711,5.978,9.234V146.625ZM308.635,5.16c21.726,0,32.857,32.042,33.4,66.527,0.268,37.742-12.223,78.472-36.382,83.358V5.16h2.979Zm95.451,0c10.862,0,17.922,7.328,22.807,17.108,6.246,12.76,8.689,29.6,9.771,39.648h2.175L433.407-.271h-25.8c-19.283,0-29.6,11.409-31.228,24.982-1.083,9.771,2.174,20.365,9.5,29.054l11.409,12.759-26.065,55.4c4.071,23.354,20.1,38.834,38.288,38.834,17.654,0,35.031-16.562,35.031-39.648,0-17.654-7.06-32.042-16.831-45.348-7.874-10.594-17.654-20.365-26.611-30.414-5.44-5.7-10.594-13.306-11.14-21.179C389.152,14.931,394.037,5.429,404.086,5.16ZM415.753,88.25c7.328,10.863,12.759,22.808,13.037,37.2,0.268,20.366-9.771,29.868-19.283,29.868-14.933,0-20.1-14.12-20.365-30.95-0.258-20.634,6.255-45.348,10.6-55.118A148.91,148.91,0,0,1,415.753,88.25Z"/>
</svg>
