<svg xmlns="http://www.w3.org/2000/svg" width="636.65" height="154" viewBox="0 0 636.65 154">
  <defs>
    <style>
      .cls-1 {
        fill: #fffef4;
        fill-rule: evenodd;
      }
    </style>
  </defs>
  <path id="EPISODES" class="cls-1" d="M2046.88,268.917c0,6.23-.53,7.531-5.46,8.832l-7.27,2.08v2.593h41.29v-2.593l-7.01-2.08c-4.93-1.3-5.45-2.593-5.45-8.832V141.927c0-6.23.26-7.531,5.45-8.832l7.01-2.08v-2.593h-41.29v2.593l7.27,2.08c4.94,1.3,5.46,2.593,5.46,8.832v126.99Zm-165.76,0c0,6.23-.53,7.531-5.45,8.832l-7.28,2.08v2.593h70.38l3.12-78.168h-2.6c-4.67,60.513-15.84,72.716-37.92,72.973h-4.16V190.493h2.6c17.92,0,18.17,21.814,15.32,70.124h2.33c3.12-27.788,3.9-73.239,6.5-101.026h-2.6c-1.81,21.035-9.61,25.973-21.55,25.973h-2.6V133.617h4.94c18.44,0,31.17,8.053,35.84,54.274h2.6l-5.19-59.469h-67v2.593l7.28,2.08c4.93,1.3,5.45,2.593,5.45,8.832v126.99h-0.01Zm87.07,0c0,6.23-.52,7.531-5.45,8.832l-7.01,2.08v2.593h41.04v-2.593l-7.01-2.08c-4.94-1.3-5.45-2.593-5.45-8.832V246.846c11.42-15.061,43.11-52.982,43.11-93.229,0-14.283-8.83-25.195-28.56-25.195h-43.12v2.593l7.01,2.08c4.94,1.3,5.45,2.593,5.45,8.832v126.99h-0.01Zm16.1-135.3h3.89c17.67,0,22.34,14.283,22.34,29.345,0,26.487-14.03,61.548-26.23,75.309V133.617Zm134.05,0c10.39,0,17.14,7.009,21.81,16.363,5.97,12.2,8.31,28.31,9.35,37.92h2.08l-5.2-59.478h-24.67c-18.44,0-28.31,10.912-29.87,23.894-1.04,9.345,2.08,19.478,9.09,27.788l10.91,12.2-24.93,52.982c3.89,22.336,19.22,37.142,36.62,37.142,16.89,0,33.5-15.841,33.5-37.921,0-16.885-6.75-30.646-16.09-43.371-7.53-10.133-16.89-19.478-25.45-29.088-5.21-5.452-10.14-12.726-10.66-20.257C2104.05,142.962,2108.73,133.874,2118.34,133.617Zm11.16,79.469c7,10.389,12.2,21.814,12.46,35.575,0.26,19.477-9.34,28.566-18.44,28.566-14.28,0-19.22-13.5-19.48-29.6-0.24-19.735,5.99-43.372,10.14-52.717A142.424,142.424,0,0,1,2129.5,213.086Zm102.14-13.505c0,39.735-9.61,77.655-21.29,77.655s-21.04-37.92-21.04-77.655c0-39.477,8.05-65.964,21.04-65.964S2231.64,160.1,2231.64,199.581Zm-60.25-5.451c0,42.593,14.28,88.3,38.96,88.3,24.93,0,38.95-45.708,38.95-88.3,0-42.336-15.06-65.708-38.95-65.708C2186.71,128.422,2171.39,151.794,2171.39,194.13Zm99.41,74.787c0,6.23-.53,7.531-5.72,8.832l-7.01,2.08v2.593H2283c35.58-.257,55.83-49.346,55.32-91.938-0.26-32.973-13.25-62.062-40.77-62.062h-39.48v2.593l7.01,2.08c5.19,1.3,5.72,2.593,5.72,8.832v126.99Zm18.7-135.3c20.78,0,31.42,30.646,31.94,63.628,0.26,36.1-11.69,75.053-34.79,79.725V133.617h2.85Zm69.74,135.3c0,6.23-.53,7.531-5.45,8.832l-7.28,2.08v2.593h70.38l3.12-78.168h-2.6c-4.67,60.513-15.84,72.716-37.92,72.973h-4.16V190.493h2.6c17.92,0,18.17,21.814,15.32,70.124h2.33c3.12-27.788,3.9-73.239,6.5-101.026h-2.6c-1.81,21.035-9.61,25.973-21.55,25.973h-2.6V133.617h4.94c18.44,0,31.17,8.053,35.84,54.274h2.6l-5.19-59.469h-67v2.593l7.27,2.08c4.94,1.3,5.46,2.593,5.46,8.832v126.99h-0.01Zm107.14-135.3c10.39,0,17.14,7.009,21.81,16.363,5.97,12.2,8.31,28.31,9.35,37.92h2.07l-5.19-59.478h-24.67c-18.44,0-28.31,10.912-29.87,23.894-1.04,9.345,2.08,19.478,9.09,27.788l10.91,12.2-24.93,52.982c3.89,22.336,19.22,37.142,36.62,37.142,16.89,0,33.5-15.841,33.5-37.921,0-16.885-6.75-30.646-16.09-43.371-7.53-10.133-16.89-19.478-25.45-29.088-5.21-5.452-10.14-12.726-10.66-20.257C2452.09,142.962,2456.77,133.874,2466.38,133.617Zm11.16,79.469c7,10.389,12.2,21.814,12.46,35.575,0.26,19.477-9.34,28.566-18.44,28.566-14.28,0-19.22-13.5-19.48-29.6-0.24-19.735,5.99-43.372,10.14-52.717A142.424,142.424,0,0,1,2477.54,213.086Z" transform="translate(-1868.41 -128.438)"/>
</svg>
