<svg xmlns="http://www.w3.org/2000/svg" width="99.563" height="323.9" viewBox="0 0 99.563 323.9">
  <defs>
    <style>
      .cls-1 {
        fill: #ff3600;
        fill-rule: evenodd;
      }
    </style>
  </defs>
  <path id="NEWS" class="cls-1" d="M281.461,1821.82l-81.582,27.36,2.351,8.39h88.463c4.027,0,4.868.34,5.709,3.52l1.344,4.54h1.676v-29.55h-1.676l-0.841,8.56c-0.669,7.89-8.06,9.57-13.934,9.57H217.165l82.257-27.86V1810.4h-1.676l-1.344,4.7c-0.841,3.2-1.676,3.53-5.709,3.53H208.608c-4.027,0-4.868-.34-5.709-3.53l-1.344-4.7h-1.676v29.71h1.676l0.84-8.56c0.67-7.89,8.061-9.74,13.935-9.74h65.131v0.01Zm-72.853,82.56c-4.027,0-4.868-.34-5.709-3.52l-1.344-4.71h-1.676v45.5l50.526,2.01v-1.67c-39.114-3.02-47-10.24-47.169-24.52v-2.68H259.3v1.67c0,11.58-14.1,11.75-45.328,9.9v1.51c17.962,2.02,47.341,2.52,65.3,4.2v-1.67c-13.6-1.18-16.79-6.22-16.79-13.94v-1.67h33.579v3.19c0,11.92-5.206,20.14-35.083,23.16v1.68l38.44-3.35v-43.31h-1.676l-1.344,4.7c-0.841,3.19-1.676,3.53-5.709,3.53H208.608v-0.01Zm82.085,120.21c4.027-.67,5.206.17,5.875,3.19l1.172,4.37h1.682v-26.86h-1.676l-1.344,4.2c-1.007,3.36-1.676,3.86-5.709,4.53l-13.935,2.52-63.62-8.9,77.555-13.26c4.027-.67,5.206.17,5.875,3.19l1.172,4.37h1.682v-26.86h-1.676l-1.344,4.2c-1.007,3.36-1.676,3.86-5.709,4.53l-90.814,15.95v10.58l4.364-.67,61.607,8.72-65.971,11.59v10.57l4.364-.66,86.45,12.25c4.2,0.67,4.868,1.51,5.709,4.87l1.344,4.36h1.676v-25.85h-1.676l-1.007,5.37c-1.51,9.4-7.053,7.72-11.08,7.06l-72.521-10.08Zm5.372,84.71c0,6.72-4.531,11.08-10.577,14.1-7.889,3.87-18.3,5.38-24.512,6.04v1.35l38.446-3.36v-15.95c0-11.92-7.053-18.3-15.445-19.3a24.041,24.041,0,0,0-17.961,5.87l-7.888,7.05-34.247-16.11c-14.438,2.52-24.008,12.43-24.008,23.67,0,10.92,10.239,21.66,24.511,21.66,10.914,0,19.809-4.37,28.035-10.41,6.55-4.86,12.59-10.91,18.8-16.45,3.524-3.36,8.226-6.55,13.094-6.89C290.024,2100.07,295.9,2103.09,296.065,2109.3Zm-51.368,7.22c-6.716,4.53-14.1,7.88-23,8.06-12.59.16-18.465-6.04-18.465-11.92,0-9.24,8.729-12.43,19.135-12.59,12.756-.16,28.034,3.86,34.075,6.54A92.192,92.192,0,0,1,244.7,2116.52Z" transform="translate(-199.875 -1810.41)"/>
</svg>
