<svg xmlns="http://www.w3.org/2000/svg" width="298.22" height="91.65" viewBox="0 0 298.22 91.65">
  <defs>
    <style>
      .cls-1 {
        fill: #ff3600;
        fill-rule: evenodd;
      }
    </style>
  </defs>
  <path id="news_h2-s.svg" class="cls-1" d="M1648.82,3376.4l25.19,75.11,7.73-2.16V3367.9c0-3.7.31-4.48,3.24-5.25l4.17-1.24v-1.54h-27.2v1.54l7.88,0.77c7.27,0.62,8.81,7.42,8.81,12.83v60.59l-25.65-75.73h-14.68v1.54l4.33,1.24c2.94,0.77,3.24,1.54,3.24,5.25v75.57c0,3.71-.31,4.49-3.24,5.26l-4.33,1.24v1.54h27.35v-1.54l-7.88-.78c-7.26-.61-8.96-7.42-8.96-12.83V3376.4h0Zm76.01,67.07c0,3.71-.31,4.49-3.24,5.26l-4.33,1.24v1.54h41.88l1.86-46.52h-1.54c-2.79,36.01-9.43,43.28-22.57,43.43h-2.48V3396.8h1.55c10.66,0,10.81,12.99,9.11,41.73h1.39c1.86-16.53,2.32-43.58,3.87-60.12h-1.54c-1.08,12.52-5.72,15.46-12.83,15.46h-1.55v-30.91h2.94c10.98,0,18.55,4.79,21.33,32.3h1.54l-3.08-35.39h-39.87v1.54l4.32,1.24c2.94,0.77,3.25,1.54,3.25,5.25v75.57h-0.01Zm110.68-75.57c-0.62-3.7.15-4.79,2.94-5.41l4.01-1.08v-1.54h-24.72v1.54l3.87,1.24c3.09,0.92,3.55,1.54,4.17,5.25l2.31,12.83-8.19,58.57-12.2-71.4c-0.62-3.7.15-4.79,2.93-5.41l4.02-1.08v-1.54h-24.72v1.54l3.86,1.24c3.09,0.92,3.56,1.54,4.17,5.25l14.69,83.61h9.73l-0.61-4.02,8.03-56.72,10.67,60.74h9.74l-0.62-4.02,11.28-79.59c0.62-3.86,1.39-4.48,4.48-5.25l4.02-1.24v-1.54h-23.8v1.54l4.95,0.93c8.65,1.39,7.11,6.49,6.49,10.2l-9.27,66.76Zm77.99-4.94c6.19,0,10.21,4.17,12.99,9.73,3.55,7.27,4.94,16.85,5.56,22.57h1.23l-3.09-35.39h-14.68c-10.97,0-16.85,6.49-17.77,14.22a22.069,22.069,0,0,0,5.41,16.53l6.49,7.26-14.84,31.53c2.32,13.3,11.44,22.11,21.8,22.11,10.04,0,19.93-9.43,19.93-22.57,0-10.05-4.01-18.24-9.58-25.81-4.48-6.03-10.04-11.59-15.14-17.31-3.1-3.25-6.03-7.57-6.34-12.06C1905,3368.52,1907.79,3363.11,1913.5,3362.96Zm6.65,47.29c4.17,6.18,7.26,12.98,7.42,21.17,0.15,11.59-5.57,17-10.98,17-8.5,0-11.44-8.04-11.59-17.62-0.15-11.74,3.56-25.81,6.03-31.37A85.475,85.475,0,0,1,1920.15,3410.25Z" transform="translate(-1638.31 -3359.88)"/>
</svg>
