<svg xmlns="http://www.w3.org/2000/svg" width="39.15" height="131.19" viewBox="0 0 39.15 131.19">
  <defs>
    <style>
      .cls-1 {
        fill: #5638fa;
        fill-rule: evenodd;
      }
    </style>
  </defs>
  <path id="シェイプ_1" data-name="シェイプ 1" class="cls-1" d="M1358.72,3276.89l0.45,0.46-12.21,12.21,7.38,7.37,12.21-12.21,12.21,12.21,7.38-7.37-12.22-12.21,12.22-12.22-7.38-7.37-12.21,12.21-12.21-12.21-7.38,7.37,1.22,1.22Zm0-46,0.45,0.46-12.21,12.21,7.38,7.37,12.21-12.21,12.21,12.21,7.38-7.37-12.22-12.21,12.22-12.22-7.38-7.37-12.21,12.21-12.21-12.21-7.38,7.37,1.22,1.22Zm0-46,0.45,0.46-12.21,12.21,7.38,7.37,12.21-12.21,12.21,12.21,7.38-7.37-12.22-12.21,12.22-12.22-7.38-7.37-12.21,12.21-12.21-12.21-7.38,7.37,1.22,1.22Z" transform="translate(-1346.97 -3165.75)"/>
</svg>
