<svg xmlns="http://www.w3.org/2000/svg" width="39" height="131" viewBox="0 0 39 131">
  <defs>
    <style>
      .cls-1 {
        fill: #ff3600;
        fill-rule: evenodd;
      }
    </style>
  </defs>
  <path id="シェイプ_1" data-name="シェイプ 1" class="cls-1" d="M1341.7,1708.99l0.45,0.45-12.16,12.19,7.35,7.37,12.16-12.2,12.16,12.2,7.35-7.37-12.16-12.19,12.16-12.2-7.35-7.36-12.16,12.19-12.16-12.19-7.35,7.36,1.21,1.22Zm0-45.94,0.45,0.45-12.16,12.2,7.35,7.36,12.16-12.19,12.16,12.19,7.35-7.36-12.16-12.2,12.16-12.19-7.35-7.37-12.16,12.2-12.16-12.2-7.35,7.37,1.21,1.21Zm0-45.93,0.45,0.45-12.16,12.19,7.35,7.37,12.16-12.2,12.16,12.2,7.35-7.37-12.16-12.19,12.16-12.2-7.35-7.36-12.16,12.19-12.16-12.19-7.35,7.36,1.21,1.22Z" transform="translate(-1330 -1598)"/>
</svg>
