<svg xmlns="http://www.w3.org/2000/svg" width="319.47" height="91" viewBox="0 0 319.47 91">
  <defs>
    <style>
      .cls-1 {
        fill: #ff3600;
        fill-rule: evenodd;
      }
    </style>
  </defs>
  <path id="SPECIAL" class="cls-1" d="M1621.52,1771.73c6.14,0,10.13,4.14,12.89,9.67,3.53,7.21,4.91,16.73,5.52,22.4h1.23l-3.07-35.14h-14.58c-10.89,0-16.72,6.45-17.64,14.12a21.959,21.959,0,0,0,5.37,16.42l6.44,7.21-14.73,31.3c2.3,13.2,11.36,21.95,21.64,21.95,9.98,0,19.8-9.36,19.8-22.41,0-9.97-3.99-18.1-9.51-25.62-4.45-5.99-9.98-11.51-15.04-17.19-3.08-3.22-5.99-7.52-6.3-11.97C1613.08,1777.25,1615.84,1771.88,1621.52,1771.73Zm6.6,46.96c4.14,6.13,7.21,12.88,7.36,21.02,0.15,11.5-5.52,16.87-10.89,16.87-8.44,0-11.36-7.97-11.51-17.49-0.15-11.66,3.53-25.62,5.98-31.14A82.926,82.926,0,0,1,1628.12,1818.69Zm28.61,32.99c0,3.68-.31,4.44-3.22,5.21l-4.15,1.23v1.53h24.25v-1.53l-4.14-1.23c-2.92-.77-3.22-1.53-3.22-5.21v-13.05c6.75-8.9,25.47-31.3,25.47-55.08,0-8.44-5.21-14.89-16.87-14.89h-25.48v1.53l4.14,1.23c2.92,0.77,3.22,1.53,3.22,5.22v75.04h0Zm9.51-79.95h2.3c10.44,0,13.2,8.44,13.2,17.34,0,15.65-8.29,36.37-15.5,44.5v-61.84Zm37.96,79.95c0,3.68-.31,4.44-3.22,5.21l-4.3,1.23v1.53h41.59l1.84-46.18h-1.53c-2.76,35.75-9.36,42.96-22.41,43.11h-2.46v-51.24h1.54c10.59,0,10.74,12.89,9.05,41.43h1.38c1.84-16.42,2.3-43.27,3.84-59.69h-1.54c-1.07,12.43-5.67,15.34-12.73,15.34h-1.54v-30.69h2.92c10.9,0,18.42,4.76,21.18,32.07h1.53l-3.06-35.14h-39.59v1.53l4.3,1.23c2.92,0.77,3.22,1.53,3.22,5.22v75.04h-0.01Zm71.34,7.98c7.37,0,12.28-2.92,16.57-8.59l-1.22-1.23a13.009,13.009,0,0,1-15.35,3.68c-10.9-4.6-14.73-23.17-15.96-36.22-0.61-8.43-.92-28.38,5.06-38.82,2.61-4.3,5.83-6.45,9.05-6.6,3.68-.15,7.52,2.3,10.28,6.75,4.6,7.52,6.29,19.18,6.91,25.17h1.53l-3.06-35.14h-13.96c-15.5,0-24.55,13.81-25.47,38.82-0.92,25.17,8.28,52.18,25.62,52.18h0Zm30.45-7.98c0,3.68-.31,4.44-3.22,5.21l-4.3,1.23v1.53h24.4v-1.53l-4.14-1.23c-2.92-.77-3.22-1.53-3.22-5.21v-75.04c0-3.68.15-4.45,3.22-5.22l4.14-1.23v-1.53h-24.4v1.53l4.3,1.23c2.92,0.77,3.22,1.53,3.22,5.22v75.04Zm56.52-1.85c0.77,3.84,1.53,6.45-2.76,7.37l-6.29.92v1.53h26.09v-1.53l-2.76-1.23c-2.92-1.23-3.53-1.53-4.15-5.21l-16.12-83.02H1839.8v1.53l4.45,1.23c1.69,0.46,2.61.77,3.22,1.69l-13.97,78.57c-0.61,3.68-1.38,3.98-4.45,5.21l-2.76,1.23v1.53h19.49v-1.53l-4.91-1.69c-2.76-.77-4.76-1.84-4.14-5.68l4.76-26.54h16.11Zm-20.41-28.69,7.21-40.36,7.67,40.36H1842.1Zm45.67,30.54c0,3.68-.31,4.44-3.22,5.21l-4.3,1.23v1.53h40.36l1.84-46.18h-1.53c-2.77,35.75-9.36,42.96-22.41,43.11h-1.23v-79.94c0-3.68.31-4.45,3.22-5.22l4.14-1.23v-1.53h-24.4v1.53l4.3,1.23c2.92,0.77,3.22,1.53,3.22,5.22v75.04h0.01Z" transform="translate(-1602.97 -1768.66)"/>
</svg>
