<svg xmlns="http://www.w3.org/2000/svg" width="405.25" height="153.97" viewBox="0 0 405.25 153.97">
  <defs>
    <style>
      .cls-1 {
        fill: #fffef4;
        fill-rule: evenodd;
      }
    </style>
  </defs>
  <path id="STORY" class="cls-1" d="M232.83,3680.23c10.387,0,17.138,7.01,21.81,16.36,5.972,12.2,8.307,28.3,9.343,37.91h2.079l-5.194-59.46H236.2c-18.439,0-28.3,10.91-29.861,23.89-1.035,9.34,2.08,19.47,9.087,27.78l10.909,12.2-24.924,52.97c3.893,22.33,19.217,37.13,36.612,37.13,16.881,0,33.5-15.84,33.5-37.91,0-16.88-6.751-30.64-16.094-43.36-7.529-10.13-16.881-19.48-25.446-29.08-5.2-5.45-10.13-12.73-10.652-20.26C218.55,3689.57,223.222,3680.49,232.83,3680.23Zm11.157,79.45c7.007,10.39,12.2,21.81,12.466,35.57,0.257,19.47-9.343,28.56-18.438,28.56-14.28,0-19.217-13.5-19.474-29.6-0.247-19.73,5.981-43.36,10.131-52.7A141.842,141.842,0,0,1,243.987,3759.68Zm53.857,69.33h41.017v-2.59l-7.007-2.08c-4.928-1.3-5.45-2.6-5.45-8.83V3680.23c11.431,0,21.818,14.54,25.189,54.26h2.079l-2.857-59.45H285.9l-2.867,59.45h2.079c3.38-39.72,13.767-54.26,25.189-54.26V3815.5c0,6.24-.513,7.53-5.45,8.83l-7.007,2.08v2.6Zm128.143-82.83c0,39.73-9.609,77.64-21.288,77.64s-21.03-37.91-21.03-77.64c0-39.47,8.051-65.95,21.03-65.95S425.987,3706.71,425.987,3746.18Zm-60.235-5.45c0,42.58,14.28,88.28,38.947,88.28,24.924,0,38.947-45.7,38.947-88.28,0-42.33-15.058-65.69-38.947-65.69C381.067,3675.04,365.752,3698.4,365.752,3740.73Zm98.3,74.77c0,6.23-.522,7.53-5.45,8.83l-7.273,2.08V3829h41.284v-2.59l-7.008-2.08c-5.193-1.3-5.45-2.59-5.45-8.83v-58.93c2.858-3.64,7.007-7.28,11.422-11.17l16.094,70.11c1.3,6.23.257,7.53-4.158,8.83l-6.751,2.08v2.59h39.469v-2.59l-6.228-1.81c-5.45-1.3-5.45-2.86-6.751-9.09l-15.581-67.76-12.723-5.45c14.024-12.73,30.118-27.26,30.118-42.32,0-13.76-8.83-24.93-30.118-24.93H451.332v2.6l7.273,2.08c4.938,1.3,5.45,2.59,5.45,8.83V3815.5Zm16.1-135.27h3.893c17.66,0,23.632,8.56,23.367,20-0.523,18.69-11.945,34.53-27.26,49.33v-69.33Zm111.715,8.31c1.3-5.2,3.893-7.79,8.564-9.09l6.229-1.81v-2.6H572.39v2.59l9.343,1.81c4.415,0.78,5.715,5.45,4.158,10.91l-14.28,58.42-15.58-60.23c-1.558-6.23,0-7.53,4.671-8.83l6.5-2.08v-2.59H525.913v2.59l5.716,1.56c4.672,1.03,6.751,3.63,8.308,9.34l18.173,69.84v57.12c0,6.23-.257,7.53-5.45,8.83l-7.007,2.08v2.59h41.282v-2.59l-7.272-2.08c-4.937-1.3-5.45-2.59-5.45-8.83v-57.37Z" transform="translate(-201.406 -3675.03)"/>
</svg>
